<svg width="19" height="19" viewBox="0 0 19 19" fill="none" xmlns="http://www.w3.org/2000/svg">
<g clip-path="url(#clip0_3398_1115)">
<path d="M17.1 0H5.7C4.65215 0 3.8 0.85215 3.8 1.9V3.8H1.9C0.85215 3.8 0 4.65215 0 5.7V17.1C0 18.1479 0.85215 19 1.9 19H13.3C14.3478 19 15.2 18.1479 15.2 17.1V15.2H17.1C18.1479 15.2 19 14.3478 19 13.3V1.9C19 0.85215 18.1479 0 17.1 0ZM13.3 17.1H1.9V5.7H3.8V13.3C3.8 14.3478 4.65215 15.2 5.7 15.2H13.3V17.1ZM17.0971 13.3H5.7V1.9H17.1L17.0971 13.3Z" fill="#352101"/>
</g>
<defs>
<clipPath id="clip0_3398_1115">
<rect width="19" height="19" fill="white"/>
</clipPath>
</defs>
</svg>
